<svg width="423" height="249" viewBox="0 0 423 249" fill="none" xmlns="http://www.w3.org/2000/svg">
<path d="M41.9492 76.9375H75.6992C92.2227 76.9375 104.914 84.8828 113.773 100.773C116.234 107.242 117.465 112.199 117.465 115.645C117.465 136.879 107.27 151.223 86.8789 158.676C82.7305 159.238 80.6562 159.625 80.6562 159.836C75.4531 159.625 71.3398 159.52 68.3164 159.52H45.6406C35.2344 159.52 28.3438 163.141 24.9688 170.383C23.7031 172.984 23.0703 175.551 23.0703 178.082V181.246H116.516C116.938 181.316 117.148 181.527 117.148 181.879V202.867C117.148 203.289 116.938 203.5 116.516 203.5H1.13281C0.710938 203.5 0.5 203.289 0.5 202.867V178.715C0.5 162.824 8.12891 150.449 23.3867 141.59C29.7148 138.707 35.5859 137.266 41 137.266H76.6484C84.0312 137.266 89.6914 133.152 93.6289 124.926C94.2617 122.887 94.6836 119.898 94.8945 115.961C94.8945 112.094 92.5039 107.945 87.7227 103.516C84.7695 100.633 79.1094 99.1914 70.7422 99.1914H45.6406C35.2344 99.1914 28.3438 102.812 24.9688 110.055C23.9141 112.023 23.1758 115.012 22.7539 119.02C21.2773 119.23 20.4688 119.336 20.3281 119.336C9.57031 119.547 3.06641 119.652 0.816406 119.652L0.5 119.02V118.703C0.5 101.055 9.25391 88.0469 26.7617 79.6797C31.9648 77.8516 37.0273 76.9375 41.9492 76.9375ZM182.522 76.7266H204.249C204.671 76.7969 204.882 77.0078 204.882 77.3594V202.867C204.882 203.289 204.671 203.5 204.249 203.5H182.522C182.1 203.5 181.889 203.289 181.889 202.867V115.75C175.983 118.633 170.534 120.074 165.542 120.074H153.413C152.991 120.074 152.78 119.898 152.78 119.547V98.1367C152.78 97.7852 158.581 97.2578 170.182 96.5547C177.987 92.2656 181.889 87.2031 181.889 81.3672V77.3594C181.96 76.9375 182.171 76.7266 182.522 76.7266Z" fill="black"/>
<path d="M297.281 76.3211H359.575C368.954 77.7484 376.193 80.4672 381.291 84.4773C392.37 92.9055 397.909 104.902 397.909 120.467V199.888C397.909 200.296 397.705 200.5 397.297 200.5H376.499C376.091 200.5 375.887 200.296 375.887 199.888V120.161C375.887 110.17 372.251 103.509 364.978 100.178C362.871 98.9547 358.351 98.343 351.418 98.343H297.587C288.343 98.343 282.192 103.203 279.134 112.922C278.93 114.282 278.828 115.369 278.828 116.185V199.888C278.828 200.296 278.624 200.5 278.216 200.5H257.112C256.704 200.5 256.5 200.296 256.5 199.888V119.855C256.5 100.28 265.268 86.6863 282.804 79.0738C287.358 77.2387 292.184 76.3211 297.281 76.3211Z" fill="black"/>
</svg>
